   General
      Format : AVI
      Format/Info : Audio Video Interleave
      File size : 615 MiB
      Duration : 1h 47mn
      Overall bit rate : 799 Kbps
      Writing application : MEncoder 1.0rc2-4.2.4
      Writing library : MPlayer
   Video
      Format : MPEG-4 Visual
      Format profile : Simple@L1
      Format settings, BVOP : No
      Format settings, QPel : No
      Format settings, GMC : No warppoints
      Format settings, Matrix : Default
      Codec ID : XVID
      Codec ID/Hint : XviD
      Duration : 1h 47mn
      Bit rate : 658 Kbps
      Width : 480 pixels
      Height : 272 pixels
      Display aspect ratio : 16/9
      Frame rate : 29.970 fps
      Resolution : 24 bits
      Colorimetry : 4:2:0
      Scan type : Progressive
      Bits/(Pixel*Frame) : 0.168
      Stream size : 506 MiB (82%)
      Writing library : Lavc51.44.0
   Audio
      Format : MPEG Audio
      Format version : Version 1
      Format profile : Layer 3
      Codec ID : 55
      Codec ID/Hint : MP3
      Duration : 1h 47mn
      Bit rate mode : Constant
      Bit rate : 128 Kbps
      Channel(s) : 2 channels
      Sampling rate : 44.1 KHz
      Resolution : 16 bits
      Stream size : 98.5 MiB (16%)
      Alignment : Aligned on interleaves
      Interleave, duration : 26 ms (0.78 video frame)
      Interleave, preload duration : 522 ms